PathFileType	4	(X/Y/Z)	c:/Users/goper/Files/vsCode/490R/osim_files/A06/A06_Fast_03.trc
DataRate	CameraRate	NumFrames	NumMarkers	Units                	OrigDataRate	OrigDataStartFrame	OrigNumFrames
120.00	120.00	7	36	mm	120.0	1923	2197
                Frame#	Time	LPSIS			LASIS			LTH1			LTH2			LTH3			LTH4			LLFE			LMFE			LSH1			LSH2			LSH3			LSH4			LLMAL			LMMAL			LCAL			LMTP5			LTOE			LMTP1			RPSIS			RASIS			RTH1			RTH2			RTH3			RTH4			RLFE			RMFE			RSH1			RSH2			RSH3			RSH4			RLMAL			RMMAL			RCAL			RMTP1			RTOE			RMTP5		
		X1	Y1	Z1	X2	Y2	Z2	X3	Y3	Z3	X4	Y4	Z4	X5	Y5	Z5	X6	Y6	Z6	X7	Y7	Z7	X8	Y8	Z8	X9	Y9	Z9	X10	Y10	Z10	X11	Y11	Z11	X12	Y12	Z12	X13	Y13	Z13	X14	Y14	Z14	X15	Y15	Z15	X16	Y16	Z16	X17	Y17	Z17	X18	Y18	Z18	X19	Y19	Z19	X20	Y20	Z20	X21	Y21	Z21	X22	Y22	Z22	X23	Y23	Z23	X24	Y24	Z24	X25	Y25	Z25	X26	Y26	Z26	X27	Y27	Z27	X28	Y28	Z28	X29	Y29	Z29	X30	Y30	Z30	X31	Y31	Z31	X32	Y32	Z32	X33	Y33	Z33	X34	Y34	Z34	X35	Y35	Z35	X36	Y36	Z36

1923	16.01667	0.00000	0.00000	0.00000	-4261.51074	942.89014	419.10602	-4231.37646	571.52563	455.32538	-4242.81201	531.31183	448.74063	-4290.00879	581.45251	445.54739	-4292.15625	539.06989	442.29633	-4270.77100	462.30157	438.92587	-4272.16943	457.98779	325.13293	0.00000	0.00000	0.00000	-4132.16846	396.54111	454.54266	0.00000	0.00000	0.00000	-4177.13477	358.66534	447.18079	0.00000	0.00000	0.00000	0.00000	0.00000	0.00000	-3903.07300	281.79892	373.36014	-3967.93188	112.80457	450.63617	-4008.05737	91.89839	399.30124	-3985.72388	101.12641	359.56952	0.00000	0.00000	0.00000	-4248.57812	970.59998	162.19638	-4148.58594	589.24725	130.35425	-4157.33936	547.92676	129.07959	-4210.25244	595.43915	134.73351	-4211.59424	550.70099	132.01434	-4190.03955	434.10129	159.39543	0.00000	0.00000	0.00000	0.00000	0.00000	0.00000	0.00000	0.00000	0.00000	-4240.56641	279.25070	185.12297	-4238.56885	231.91982	181.74181	-4196.64990	100.86226	176.96886	-4213.16992	106.00081	258.07507	-4142.33740	84.74100	228.55049	-4345.77979	58.53020	245.29655	-4357.87549	69.24033	203.12125	-4326.60498	58.71464	158.90196
1924	16.02500	0.00000	0.00000	0.00000	-4270.54883	945.04279	418.94357	-4248.41797	575.01318	454.16043	-4260.89551	534.93652	447.42596	-4306.82129	586.33856	444.29498	-4310.47949	543.03558	441.29758	-4290.82324	466.65244	437.42215	-4292.01416	462.68170	323.72183	0.00000	0.00000	0.00000	0.00000	0.00000	0.00000	0.00000	0.00000	0.00000	0.00000	0.00000	0.00000	-3974.22534	233.31664	423.84775	0.00000	0.00000	0.00000	-3925.70288	274.76657	373.22583	-4000.21338	109.43974	447.15549	-4039.98584	87.03736	394.33279	-4018.00757	99.13891	355.90680	0.00000	0.00000	0.00000	-4258.86572	971.64716	161.85530	-4154.64795	589.95172	130.23312	-4163.47363	549.25256	129.05627	-4216.87793	596.09546	134.66782	-4217.70166	551.37634	131.99712	-4194.71387	435.01077	159.39592	0.00000	0.00000	0.00000	-4185.45117	280.64340	176.59904	0.00000	0.00000	0.00000	-4243.38379	279.57834	185.16444	-4240.89014	232.30048	181.76282	-4196.97803	101.25651	177.20090	-4213.50391	106.18592	258.20358	-4142.53906	85.00634	228.74582	-4345.98926	58.28315	245.38675	-4358.08691	68.92065	203.19780	-4326.75488	58.66228	158.99277
1925	16.03333	0.00000	0.00000	0.00000	-4279.68115	947.06268	418.74713	-4265.01660	578.44751	453.18088	-4278.45605	538.61206	446.49014	-4323.56396	590.28558	443.70462	-4327.80908	547.97162	440.26993	-4310.10107	471.03488	436.12717	-4311.44141	467.35400	322.48019	0.00000	0.00000	0.00000	-4221.70410	363.26477	444.20447	0.00000	0.00000	0.00000	0.00000	0.00000	0.00000	0.00000	0.00000	0.00000	0.00000	0.00000	0.00000	-3949.99512	267.20065	371.10010	-4033.32861	105.16519	443.51691	-4073.96606	85.40363	390.28540	-4052.62183	95.45441	351.87833	0.00000	0.00000	0.00000	-4269.13916	972.58557	161.47020	-4161.50195	591.68146	130.17801	-4169.43262	550.44189	129.00299	-4223.40967	596.68695	134.58888	-4223.80664	551.94464	131.94339	-4200.72119	437.61899	157.49420	0.00000	0.00000	0.00000	-4188.27344	281.55798	176.59259	0.00000	0.00000	0.00000	-4246.18701	279.81055	185.19681	-4243.15576	232.62038	181.79242	-4197.33447	101.64855	177.38464	-4213.86865	106.40738	258.32449	-4142.77197	85.34049	228.96526	-4346.19922	57.98944	245.48938	-4358.39062	68.67686	203.32339	-4326.90332	58.57215	159.08188
1926	16.04167	0.00000	0.00000	0.00000	-4288.83838	948.86157	418.44119	-4278.18359	580.15704	452.37418	-4295.51172	542.29919	445.62686	-4339.28271	594.94727	442.98517	-4344.54688	552.75049	439.46140	-4328.79639	475.39142	434.99722	-4330.34570	472.08859	321.43475	-4231.44824	437.87039	450.46051	0.00000	0.00000	0.00000	0.00000	0.00000	0.00000	-4243.98486	365.49936	442.89325	-4027.98682	221.04430	418.63239	-4050.02734	211.04129	336.10980	-3975.04688	258.50192	369.01669	-4067.10840	100.26929	439.64514	-4108.61377	83.41236	386.19968	-4085.68237	92.43958	347.62085	0.00000	0.00000	0.00000	-4279.85547	972.64142	161.14507	0.00000	0.00000	0.00000	-4175.55762	551.50494	128.87602	-4230.38770	596.30487	134.79422	-4229.94873	552.42920	131.83859	-4204.12744	436.57706	159.28185	0.00000	0.00000	0.00000	-4191.18994	282.49484	176.51443	0.00000	0.00000	0.00000	-4249.04053	280.03494	185.22693	-4245.45752	232.89926	181.82791	-4197.66309	102.01597	177.59448	-4214.25342	106.61800	258.46744	-4142.95605	85.67100	229.11969	-4346.38477	57.71619	245.55167	-4358.61621	68.36284	203.41496	-4327.08447	58.46180	159.18022
1927	16.05000	0.00000	0.00000	0.00000	-4298.15430	950.48431	418.09549	-4294.05811	583.60925	451.79596	-4311.99854	545.82495	444.92459	-4354.50977	599.43243	442.46130	-4360.76660	557.42139	438.87643	-4347.20557	479.76126	434.10971	-4348.58789	476.74149	320.63235	-4251.17773	438.66696	449.37906	-4225.85889	400.01813	455.08249	0.00000	0.00000	0.00000	-4266.25781	367.43930	441.62354	-4056.01733	213.73633	416.20129	-4074.49146	203.76343	335.53207	-4000.84839	248.92601	366.94528	-4100.03418	94.71177	434.85822	-4143.70166	81.08492	382.05106	-4120.37939	89.34785	343.56223	0.00000	0.00000	0.00000	-4290.10400	973.35736	160.66682	0.00000	0.00000	0.00000	-4181.64551	552.44354	128.50725	-4237.03662	596.72540	134.66708	-4236.17090	552.89111	131.68456	-4208.83057	437.25333	159.26189	0.00000	0.00000	0.00000	-4194.01953	283.30115	176.48981	0.00000	0.00000	0.00000	-4251.89551	280.25198	185.18637	-4247.80176	233.19716	181.80978	-4198.00195	102.35370	177.76122	-4214.56982	106.74321	258.56448	-4143.18115	85.97546	229.26454	-4346.60791	57.46136	245.64574	-4358.87793	68.04989	203.52081	-4327.25732	58.34193	159.28230
1928	16.05833	0.00000	0.00000	0.00000	-4306.84277	951.01996	417.27829	-4309.59961	586.96637	451.45700	-4329.08447	549.03961	447.95636	-4369.26758	603.73645	442.16876	-4376.26074	561.78772	438.42889	-4365.05225	483.72922	433.30780	-4366.23291	481.34921	319.97336	-4270.68750	438.98749	448.60226	0.00000	0.00000	0.00000	0.00000	0.00000	0.00000	-4288.47607	369.10498	440.43289	0.00000	0.00000	0.00000	0.00000	0.00000	0.00000	-4028.39746	239.18265	362.84421	-4134.96289	89.26945	430.84280	-4179.30908	78.66026	378.00650	-4155.56543	86.10330	339.60608	0.00000	0.00000	0.00000	-4300.27686	973.95660	160.17421	0.00000	0.00000	0.00000	-4187.42285	553.19153	128.63914	-4243.64258	597.00049	134.44696	-4242.30908	553.14148	131.50627	-4213.59814	437.89404	159.06035	0.00000	0.00000	0.00000	-4196.91064	284.08807	176.41641	0.00000	0.00000	0.00000	-4254.75293	280.36380	185.13202	-4250.08398	233.35841	181.79001	-4198.35107	102.68410	177.91951	-4214.89453	106.86790	258.66415	-4143.42969	86.32877	229.42220	-4346.79736	57.18591	245.69579	-4359.16895	67.76341	203.62138	-4327.43408	58.20819	159.39606
1929	16.06667	0.00000	0.00000	0.00000	-4316.18799	952.03632	416.73929	-4325.55713	590.21887	450.42307	-4344.49316	551.98853	447.66260	-4383.53174	607.70471	442.00378	-4391.49121	565.96783	438.22449	-4382.69189	487.58527	432.58984	-4383.28223	485.76111	319.48245	-4289.81250	438.79269	448.06396	-4267.76807	398.07846	453.33023	0.00000	0.00000	0.00000	-4310.47461	370.45245	439.31332	0.00000	0.00000	0.00000	0.00000	0.00000	0.00000	-4053.03174	227.68690	361.79031	-4170.40039	83.84134	427.03320	-4215.15674	76.11297	374.05338	-4191.05713	82.71843	335.70493	0.00000	0.00000	0.00000	-4310.43848	974.42572	159.66225	0.00000	0.00000	0.00000	0.00000	0.00000	0.00000	-4250.42188	597.24060	134.23744	-4248.41406	553.30493	131.23100	-4218.27734	438.41040	158.91309	0.00000	0.00000	0.00000	-4199.93213	284.93277	176.21461	0.00000	0.00000	0.00000	-4257.57764	280.44211	185.03766	-4252.34424	233.51138	181.71632	-4198.62207	102.95142	178.03204	-4215.24072	107.02940	258.74820	-4143.67725	86.68141	229.55000	-4346.96436	56.90923	245.74371	-4359.40039	67.43666	203.70135	-4327.59131	58.11351	159.44467
